<?xml version="1.0" standalone="no"?>
<!DOCTYPE svg PUBLIC "-//W3C//DTD SVG 1.1//EN" "http://www.w3.org/Graphics/SVG/1.1/DTD/svg11.dtd" >
<svg xmlns="http://www.w3.org/2000/svg">
<metadata>
This is a custom SVG webfont generated by Font Squirrel.
Copyright   : Copyright c Village Type  Design LLC All rights reserved
Designer    : chester orignally designed with Rick Valicenti
Foundry     : Village Type  Design LLC Thirstype
Foundry URL : httpvllgcomthirstype
</metadata>
<defs>
<font id="ApexNewLightItalic" horiz-adv-x="1103" >
<font-face units-per-em="2048" ascent="1536" descent="-512" />
<missing-glyph horiz-adv-x="348" />
<glyph unicode=" "  horiz-adv-x="348" />
<glyph unicode="&#x09;" horiz-adv-x="348" />
<glyph unicode="&#xa0;" horiz-adv-x="348" />
<glyph unicode="!" horiz-adv-x="389" d="M78 51q0 25 17.5 43.5t43.5 18.5q25 0 43.5 -18.5t18.5 -43.5q0 -27 -18.5 -44t-43.5 -17q-27 0 -44 17t-17 44zM168 430l108 1106h91l-166 -1106h-33z" />
<glyph unicode="&#x22;" horiz-adv-x="614" d="M229 1024l31 512h102l-96 -512h-37zM475 1024l31 512h102l-96 -512h-37z" />
<glyph unicode="#" horiz-adv-x="1232" d="M35 377l24 57h226l172 412h-226l25 57h227l158 377h68l-158 -377h387l158 377h67l-157 -377h225l-25 -57h-227l-172 -412h227l-24 -57h-228l-157 -377h-68l158 377h-387l-158 -377h-68l158 377h-225zM352 434h387l172 412h-387z" />
<glyph unicode="$" horiz-adv-x="1167" d="M80 180l8 56q49 -20 172 -41t236 -21q233 0 350 56.5t131 183.5q10 88 -37 133t-105.5 56t-216.5 26q-10 2 -16 2q-266 25 -340 53q-117 45 -104 180q2 6 2 10q18 152 146 220.5t382 68.5q27 0 84 -4l117 248h57l-123 -252q184 -16 275 -53l-8 -55q-49 20 -172 40.5 t-236 20.5q-231 0 -338.5 -50t-124.5 -184q-8 -57 13.5 -93t74.5 -53t120 -25.5t169 -16.5h12q106 -8 167 -15t124.5 -24.5t92 -45.5t43 -74t5.5 -111q-16 -150 -149 -223.5t-402 -73.5h-59l-115 -246h-57l123 250q-213 18 -301 57z" />
<glyph unicode="%" horiz-adv-x="2004" d="M162 903q25 203 118 295t271 92q176 0 246.5 -92t46.5 -295q-27 -205 -119 -297t-270.5 -92t-249 92t-43.5 297zM225 903q-23 -178 35.5 -256t202.5 -78q141 0 218 78t99 256q20 178 -37 255t-198 77q-143 0 -221.5 -77t-98.5 -255zM451 0l1060 1280h76l-1061 -1280h-75z M1194 377q27 205 119 297t268 92q178 0 250 -92t45 -297q-25 -203 -118 -295t-271 -92q-176 0 -247 92t-46 295zM1257.5 377q-22.5 -178 36 -255t199.5 -77q143 0 220 77t99.5 255t-36 256t-201.5 78q-141 0 -218 -78t-99.5 -256z" />
<glyph unicode="&#x26;" horiz-adv-x="1515" d="M127 604q37 287 209 451t461 164q76 0 157 -15q63 164 90 332h62q-20 -137 -65.5 -272.5t-122 -273.5t-177 -250.5t-242 -200.5t-306.5 -127q25 -176 144.5 -271.5t315.5 -95.5q227 0 372.5 107.5t172.5 318.5q10 109 -31 199h-196l6 57h496l-7 -57h-233q39 -86 27 -199 q-29 -227 -187 -354t-426 -127q-281 0 -417 167.5t-103 446.5zM186 465q268 70 453.5 255t292.5 431q-68 12 -141 12q-246 0 -406 -147.5t-192 -411.5q-7 -73 -7 -139z" />
<glyph unicode="'" horiz-adv-x="368" d="M229 1024l31 512h102l-96 -512h-37z" />
<glyph unicode="(" horiz-adv-x="573" d="M155 13.5q-40 265.5 1 601t146.5 601t219.5 422.5h70q-115 -152 -222.5 -420t-148.5 -603.5t0 -604t119 -420.5h-70q-75 158 -115 423.5z" />
<glyph unicode=")" horiz-adv-x="573" d="M8 -410q115 152 221.5 420.5t147.5 604t1 604t-118 419.5h70q76 -162 114.5 -426t-2.5 -597.5t-145 -598t-219 -426.5h-70z" />
<glyph unicode="*" horiz-adv-x="727" d="M88 1247l31 66l223 -105l-6 -14zM164 881l198 192l11 -8l-156 -225zM451 1278l6 258h69l-59 -258h-16zM494 1065l14 8l149 -192l-61 -41zM559 1208l250 107l12 -68l-260 -53z" />
<glyph unicode="+" horiz-adv-x="1228" d="M236 670l6 57h370l45 371h58l-45 -371h370l-6 -57h-370l-48 -371h-57l47 371h-370z" />
<glyph unicode="," horiz-adv-x="389" d="M8 -256l92 358h93l-144 -358h-41z" />
<glyph unicode="-" horiz-adv-x="696" d="M133 670l6 57h471l-6 -57h-471z" />
<glyph unicode="." horiz-adv-x="389" d="M78 51q0 25 17.5 43.5t43.5 18.5q25 0 43.5 -18.5t18.5 -43.5q0 -27 -18.5 -44t-43.5 -17q-27 0 -44 17t-17 44z" />
<glyph unicode="/" horiz-adv-x="774" d="M-111 -410l957 2048h67l-958 -2048h-66z" />
<glyph unicode="0" horiz-adv-x="1228" d="M139 641q41 342 167 495.5t402.5 153.5t365.5 -153.5t48 -495.5t-169 -496.5t-404 -154.5q-274 0 -362.5 154.5t-47.5 496.5zM203 641q-39 -315 37.5 -455.5t314.5 -140.5t351.5 140.5t152.5 455.5q37 315 -41 454.5t-315.5 139.5t-350 -139.5t-149.5 -454.5z" />
<glyph unicode="1" horiz-adv-x="696" d="M139 1161l4 31l349 98h24l-158 -1290h-61l149 1229z" />
<glyph unicode="2" horiz-adv-x="1060" d="M10 0l4 37q412 305 596.5 460.5t253 252t82.5 208.5q16 145 -61.5 211t-286.5 66q-174 0 -344 -53l8 57q150 53 340 53q250 0 338 -92t70 -244q-14 -115 -79 -210t-249 -251.5t-576 -441.5h807l-6 -53h-897z" />
<glyph unicode="3" horiz-adv-x="1015" d="M25 -213l6 55q143 -53 313 -53q129 0 220 29.5t142.5 85t76 117t34.5 143.5q25 186 -65 267t-306 81h-186l8 57h187q356 0 399 332q12 70 2 131.5t-43 106.5t-109.5 70.5t-195.5 25.5q-139 0 -311 -49l6 57q156 47 311 47q250 0 338 -101.5t66 -287.5 q-18 -137 -97.5 -238.5t-232.5 -117.5q174 -4 242.5 -113.5t50.5 -267.5q-25 -199 -147 -314.5t-396 -115.5q-196 0 -313 53z" />
<glyph unicode="4" horiz-adv-x="1183" d="M61 256l5 37l876 997h35l-121 -985h231l-6 -49h-231l-64 -512h-61l63 512h-727zM145 305h650l104 858z" />
<glyph unicode="5" horiz-adv-x="993" d="M4 -213l6 57q121 -55 281 -55q483 0 536 440q16 133 -8 215t-99 115t-136.5 40t-180.5 7h-245l82 674h745l-6 -49h-684l-70 -572q106 6 236 7q111 0 185.5 -14.5t142 -57.5t93 -134t9.5 -231q-59 -496 -608 -495q-154 0 -279 53z" />
<glyph unicode="6" horiz-adv-x="1130" d="M134.5 307q-17.5 164 15.5 422q51 416 187 616.5t433 200.5q182 0 315 -53l-6 -57q-145 55 -315 55q-137 0 -238.5 -55.5t-164 -160t-97.5 -227t-55 -288.5l-10 -78q100 293 444 293q111 0 187.5 -27.5t115.5 -75t59.5 -111t17.5 -134t-9 -146.5q-57 -492 -492 -491 q-188 0 -279 76.5t-108.5 240.5zM185.5 314.5q11.5 -78.5 43 -138t107.5 -95.5t192 -36q106 0 186.5 34t126.5 96.5t71.5 136t37.5 169.5q12 121 3 219.5t-88 159t-228 60.5q-391 0 -447 -441q-16 -86 -4.5 -164.5z" />
<glyph unicode="7" horiz-adv-x="890" d="M106 -256l791 1487h-778l6 49h829l-6 -53l-778 -1483h-64z" />
<glyph unicode="8" horiz-adv-x="1146" d="M76 403q23 182 119 285t243 115q-254 57 -215 354q23 186 134.5 287.5t342.5 101.5q432 0 383 -389q-39 -299 -301 -354q143 -12 215 -114.5t50 -285.5q-51 -414 -537 -413q-256 0 -357.5 108t-76.5 305zM139 403q-45 -358 377 -358t467 358q23 193 -68.5 280t-308.5 87 t-330.5 -87t-136.5 -280zM287 1157q-43 -332 325 -332q199 0 293 87t115 245q18 158 -50.5 246t-275.5 88q-209 0 -299 -88t-108 -246z" />
<glyph unicode="9" horiz-adv-x="1130" d="M78 -213l6 57q145 -55 315 -55q137 0 238.5 55.5t164 160t97.5 227t55 288.5l9 78q-96 -293 -443 -293q-111 0 -187.5 27.5t-115.5 75t-60.5 111t-18.5 134t9 146.5q12 102 41 182t82.5 153.5t147.5 114.5t223 41q188 0 279.5 -76.5t109 -240.5t-15.5 -422 q-51 -416 -187.5 -616.5t-433.5 -200.5q-182 0 -315 53zM204 630q7 -79 34.5 -139.5t100.5 -95.5t187 -35q391 0 447 441q14 86 3 164.5t-42 138t-106.5 95.5t-192.5 36q-207 0 -302 -117t-122 -319q-14 -90 -7 -169z" />
<glyph unicode=":" horiz-adv-x="389" d="M78 51q0 25 17.5 43.5t43.5 18.5q25 0 43.5 -18.5t18.5 -43.5q0 -27 -18.5 -44t-43.5 -17q-27 0 -44 17t-17 44zM166 768q0 25 17.5 43t43.5 18q25 0 43.5 -18t18.5 -43q0 -27 -18.5 -44t-43.5 -17q-27 0 -44 17t-17 44z" />
<glyph unicode=";" horiz-adv-x="389" d="M8 -256l92 358h93l-144 -358h-41zM166 768q0 25 17.5 43t43.5 18q25 0 43.5 -18t18.5 -43q0 -27 -18.5 -44t-43.5 -17q-27 0 -44 17t-17 44z" />
<glyph unicode="&#x3c;" horiz-adv-x="1228" d="M236 678l6 41l852 448l-9 -67l-776 -402l678 -401l-8 -68z" />
<glyph unicode="=" horiz-adv-x="1228" d="M217 524l6 58h799l-6 -58h-799zM252 815l8 57h799l-8 -57h-799z" />
<glyph unicode="&#x3e;" horiz-adv-x="1228" d="M180 229l8 68l777 401l-678 402l8 67l745 -448l-6 -41z" />
<glyph unicode="?" horiz-adv-x="962" d="M176 1446l8 55q123 45 301 45q125 0 215.5 -21.5t138.5 -58t75.5 -87t28.5 -109t-3 -119.5q-6 -45 -16.5 -83t-19.5 -67.5t-29.5 -57.5t-34 -45t-42 -36.5t-45 -31t-54 -28t-56 -23.5t-66 -24.5t-69.5 -25.5q-127 -49 -160 -106.5t-45 -192.5h-37v86q14 106 68.5 167.5 t181.5 107.5q16 6 63.5 22t63.5 22.5t54 24t54.5 31.5t42 39.5t39 55.5t25.5 71t19 92q14 72 -0.5 133t-51.5 108.5t-124 74t-220 26.5q-139 0 -305 -45zM217 51q0 25 17.5 43.5t44.5 18.5q25 0 43 -18.5t18 -43.5q0 -27 -18.5 -44t-42.5 -17q-27 0 -44.5 17t-17.5 44z" />
<glyph unicode="@" horiz-adv-x="1755" d="M92 512q49 391 267.5 584.5t639.5 193.5q399 0 559 -162.5t121 -492.5q-37 -301 -152.5 -422t-344.5 -121h-78l-14 80q-119 -90 -308 -90q-360 0 -309 430q53 430 416 430q188 0 285 -90l32 80h33l-96 -791h41q119 0 197.5 32t126.5 99.5t72 150.5t40 212 q37 299 -107.5 448.5t-521.5 149.5q-389 0 -588.5 -174t-246.5 -547q-45 -373 112.5 -547t546.5 -174q297 0 533 80l-7 -61q-246 -76 -532 -76q-422 0 -593 193.5t-124 584.5zM536.5 512q-22.5 -184 39 -279.5t235.5 -95.5q154 0 281 86l71 578q-106 86 -260 86 q-174 0 -259 -95.5t-107.5 -279.5z" />
<glyph unicode="A" horiz-adv-x="1232" d="M-10 0l731 1546h45l354 -1546h-76l-100 444h-674l-204 -444h-76zM297 502h637l-205 930z" />
<glyph unicode="B" horiz-adv-x="1206" d="M82 0l188 1536h467q244 0 339 -104q78 -86 79 -221q0 -29 -4 -60q-18 -141 -110.5 -239.5t-229.5 -110.5q172 0 247 -108q59 -84 58 -208q0 -34 -4 -71q-51 -414 -547 -414h-483zM154 59h432q418 0 461 355q5 41 4 76q0 132 -65 196q-83 82 -308 82h-436zM248 825h436 q195 0 289 92.5t112 233.5q4 32 4 61q0 108 -54 177q-69 88 -287 88h-420z" />
<glyph unicode="C" horiz-adv-x="1196" d="M145 768q47 391 205 584.5t484 193.5q229 0 370 -59l-8 -64q-164 63 -369 64q-283 0 -428 -176t-188 -543q-14 -113 -14 -209q0 -214 70 -335q101 -175 382 -175q205 0 385 64l-8 -64q-156 -59 -383 -59q-326 0 -436 193q-77 134 -77 363q0 102 15 222z" />
<glyph unicode="D" horiz-adv-x="1290" d="M82 0l188 1536h445q236 0 357.5 -92t142.5 -263q10 -76 10 -167q0 -112 -15 -246q-25 -193 -64.5 -325t-116.5 -237.5t-200.5 -155.5t-302.5 -50h-444zM154 59h368q307 0 440.5 167t180.5 542q15 123 15 224q0 206 -62 318q-92 167 -400 167h-368z" />
<glyph unicode="E" horiz-adv-x="1107" d="M82 0l188 1536h852l-8 -59h-786l-80 -652h710l-6 -57h-710l-88 -709h786l-6 -59h-852z" />
<glyph unicode="F" horiz-adv-x="1056" d="M82 0l188 1536h832l-8 -59h-766l-80 -652h690l-6 -57h-690l-95 -768h-65z" />
<glyph unicode="G" horiz-adv-x="1302" d="M145 768q47 391 205 584.5t484 193.5q250 0 401 -73l-8 -64q-180 78 -400 78q-283 0 -428 -176t-188 -543q-14 -113 -14 -209q0 -214 70 -335q101 -175 382 -175q248 0 395 68l74 594h-334l9 57h399l-86 -698q-201 -80 -463 -80q-326 0 -436 193q-77 134 -77 363 q0 102 15 222z" />
<glyph unicode="H" horiz-adv-x="1298" d="M82 0l188 1536h66l-88 -711h880l89 711h65l-188 -1536h-66l94 768h-880l-95 -768h-65z" />
<glyph unicode="I" horiz-adv-x="442" d="M127 0l188 1536h66l-188 -1536h-66z" />
<glyph unicode="J" horiz-adv-x="718" d="M-2 -4l8 55q31 -6 107 -6q135 0 212.5 50t92.5 171l157 1270h66l-156 -1266q-35 -281 -379 -280q-59 0 -108 6z" />
<glyph unicode="K" horiz-adv-x="1122" d="M82 0l188 1536h60l-107 -858l848 858h76l-678 -682l561 -854h-80l-524 811l-213 -215l-72 -596h-59z" />
<glyph unicode="L" horiz-adv-x="1001" d="M82 0l188 1536h64l-182 -1477h743l-6 -59h-807z" />
<glyph unicode="M" horiz-adv-x="1536" d="M82 0l188 1536h43l428 -1251l736 1251h43l-189 -1536h-67l163 1331l-665 -1120h-62l-391 1120l-159 -1331h-68z" />
<glyph unicode="N" horiz-adv-x="1318" d="M82 0l188 1536h41l756 -1393l168 1393h68l-189 -1536h-41l-758 1393l-165 -1393h-68z" />
<glyph unicode="O" horiz-adv-x="1347" d="M125 450q-1 27 -1 55q0 122 21 263q18 154 43 262.5t72 212t114.5 165.5t175 100t251.5 38q178 0 287.5 -56t151.5 -157.5t48 -246.5q1 -27 1 -55q0 -122 -21 -263q-18 -154 -43 -262.5t-72 -212t-115.5 -165.5t-176 -100t-251.5 -38q-178 0 -286.5 56t-150.5 158 t-48 246zM197 373q14 -160 114.5 -242t304.5 -82q156 0 260.5 44t169 141.5t98.5 220.5t58 313q19 157 19 280q0 62 -4 115q-14 160 -116 242t-306 82q-156 0 -260.5 -44t-169 -141.5t-98.5 -220.5t-56 -313q-19 -157 -19 -280q0 -62 5 -115z" />
<glyph unicode="P" horiz-adv-x="1153" d="M82 0l188 1536h480q420 0 419 -356q0 -42 -6 -88q-55 -442 -524 -443h-414l-78 -649h-65zM233 707h424q395 0 441 385q5 43 5 80q0 305 -351 305h-424z" />
<glyph unicode="Q" horiz-adv-x="1347" d="M125 417v26q0 143 20 325q18 154 43 262.5t72 212t114.5 165.5t175 100t251.5 38q178 0 287.5 -56t151.5 -157.5t48 -246.5q1 -27 1 -55q0 -122 -21 -263q-18 -147 -41 -250.5t-66 -206t-104.5 -165t-156.5 -104.5t-224 -50v-2l682 -162l-8 -72l-930 254 q-152 41 -222.5 147.5t-72.5 259.5zM197 373q14 -160 114.5 -242t304.5 -82q156 0 260.5 44t169 141.5t98.5 220.5t58 313q19 157 19 280q0 62 -4 115q-14 160 -116 242t-306 82q-156 0 -260.5 -44t-169 -141.5t-98.5 -220.5t-56 -313q-19 -157 -19 -280q0 -62 5 -115z" />
<glyph unicode="R" horiz-adv-x="1193" d="M82 0l188 1536h484q141 0 231 -27.5t132 -81t54 -130.5q6 -35 6 -75q0 -47 -8 -100q-23 -182 -104.5 -280.5t-271.5 -124.5l299 -717h-80l-285 711q-25 -2 -76 -2h-418l-86 -709h-65zM242 768h448q117 0 197 26.5t123 79t63.5 109.5t30.5 139q9 45 9 87q0 27 -4 52 q-9 65 -38 112.5t-103.5 75.5t-191.5 28h-448z" />
<glyph unicode="S" horiz-adv-x="1165" d="M45 59l8 62q186 -72 402 -72q487 0 534 375q6 51 7 92q0 116 -51 163q-69 62 -322 91q-133 14 -210 34.5t-135.5 61.5t-74.5 109q-9 39 -10 90q0 38 6 84q51 397 549 397q229 0 370 -59l-8 -64q-164 63 -369 64q-438 0 -479 -340q-5 -37 -5 -66q0 -34 5 -71 q4 -29 16.5 -50.5t28 -38t41 -29.5t52 -23.5t67.5 -17.5t81 -13.5t97 -12.5q129 -14 199.5 -31.5t130 -58.5t77.5 -115q10 -41 9 -96q0 -45 -6 -100q-10 -84 -43 -154.5t-99.5 -137t-185.5 -104.5t-281 -38q-98 0 -213.5 20t-187.5 49z" />
<glyph unicode="T" horiz-adv-x="1081" d="M180 1479l8 57h959l-8 -57h-447l-180 -1479h-66l181 1479h-447z" />
<glyph unicode="U" horiz-adv-x="1318" d="M131 498l129 1038h64l-129 -1036q-7 -60 -8 -111q0 -167 77 -242q100 -98 338 -98t363 98.5t155 352.5l129 1036h64l-129 -1038q-18 -154 -71.5 -257.5t-136.5 -156.5t-173 -73.5t-207 -20.5t-202 20.5t-155.5 73.5t-98.5 157q-17 62 -16 142q0 54 7 115z" />
<glyph unicode="V" horiz-adv-x="1232" d="M178 1536h72l317 -1434l670 1434h72l-734 -1546h-45z" />
<glyph unicode="W" horiz-adv-x="1654" d="M178 1536h68l135 -1423l545 1423h57l193 -1423l487 1423h68l-543 -1546h-53l-197 1417l-545 -1417h-53z" />
<glyph unicode="X" horiz-adv-x="1181" d="M-20 0l606 778l-402 758h82l363 -709l540 709h82l-592 -758l420 -778h-86l-377 729l-550 -729h-86z" />
<glyph unicode="Y" horiz-adv-x="1265" d="M178 1536h80l397 -848l607 848h79l-661 -907l-76 -629h-65l75 629z" />
<glyph unicode="Z" horiz-adv-x="1200" d="M10 0l4 45l1125 1434h-906l9 57h983l-6 -45l-1125 -1434h979l-6 -57h-1057z" />
<glyph unicode="[" horiz-adv-x="573" d="M76 -410l252 2048h276l-8 -59h-213l-236 -1929h213l-8 -60h-276z" />
<glyph unicode="\" horiz-adv-x="774" d="M139 1638h68l455 -2048h-68z" />
<glyph unicode="]" horiz-adv-x="573" d="M-4 -410l8 60h213l236 1929h-213l8 59h276l-252 -2048h-276z" />
<glyph unicode="^" horiz-adv-x="1044" d="M205 1024l436 512h57l310 -512h-47l-299 457l-410 -457h-47z" />
<glyph unicode="_" horiz-adv-x="593" d="M-123 -512l6 57h592l-6 -57h-592z" />
<glyph unicode="`" horiz-adv-x="1167" d="M537 1536h71l72 -410h-41z" />
<glyph unicode="a" d="M117 306q-4 37 -4 76q0 62 10 130q14 119 45 208t85 162.5t145 112.5t214 39q221 0 346 -90l39 80h27l-125 -1024h-27l-20 80q-145 -90 -369 -90q-123 0 -204.5 40t-116.5 110.5t-45 165.5zM178 342q8 -84 35 -150.5t97.5 -106.5t178.5 -40q215 0 363 86l94 762 q-129 86 -342 86q-109 0 -188.5 -39t-124.5 -109.5t-68.5 -146.5t-36.5 -172q-11 -57 -11 -114q0 -28 3 -56z" />
<glyph unicode="b" d="M82 0l188 1536h62l-74 -588q147 86 365 86q123 0 204.5 -40t115.5 -110.5t45 -165.5q4 -36 4 -75q0 -63 -11 -131q-29 -246 -139.5 -384t-347.5 -138q-92 0 -190.5 23.5t-158.5 66.5l-36 -80h-27zM158 131q129 -86 342 -86q109 0 188.5 39t124.5 109.5t68.5 146.5 t36.5 172q11 57 10 114q0 28 -2 56q-8 84 -35 150.5t-97.5 106.5t-179.5 40q-215 0 -362 -86z" />
<glyph unicode="c" horiz-adv-x="933" d="M117 301q-4 37 -4 77q0 64 10 134q31 252 140.5 387t348.5 135q160 0 279 -41l-6 -55q-147 41 -281 41q-88 0 -157.5 -26.5t-112.5 -67.5t-75 -104.5t-47 -126t-26 -142.5q-11 -60 -11 -118q0 -29 3 -57q8 -85 35 -149.5t96.5 -103.5t179.5 -39q131 0 291 41l-8 -55 q-129 -41 -289 -41q-125 0 -205.5 39t-115.5 107.5t-45 164.5z" />
<glyph unicode="d" d="M117 306q-4 37 -4 76q0 62 10 130q14 119 45 208t85 162.5t145 112.5t214 39q217 0 340 -86l74 588h61l-188 -1536h-27l-20 80q-145 -90 -369 -90q-123 0 -204.5 40t-116.5 110.5t-45 165.5zM178 342q8 -84 35 -150.5t97.5 -106.5t178.5 -40q215 0 363 86l94 762 q-129 86 -342 86q-109 0 -188.5 -39t-124.5 -109.5t-68.5 -146.5t-36.5 -172q-11 -57 -11 -114q0 -28 3 -56z" />
<glyph unicode="e" horiz-adv-x="1046" d="M117 301q-4 37 -4 77q0 64 10 134q31 252 140.5 387t348.5 135q199 0 276 -72q63 -60 63 -159q0 -21 -3 -43q-33 -276 -405 -277h-361q-7 -47 -6 -92q0 -38 4 -74q10 -80 38 -140t96.5 -96t174.5 -36q170 0 332 51l-6 -55q-139 -51 -332 -51q-125 0 -205.5 39 t-115.5 107.5t-45 164.5zM190 541h361q170 0 246.5 54t89.5 165q2 18 2 35q0 85 -52 130q-62 54 -233 54q-201 0 -293 -117.5t-121 -320.5z" />
<glyph unicode="f" horiz-adv-x="757" d="M109 969l4 35l196 22l29 231q35 289 391 289q86 0 127 -8l-8 -55q-45 8 -125 8q-297 0 -324 -234l-28 -233h350l-6 -55h-350l-183 -1481h-61l182 1481h-194z" />
<glyph unicode="g" d="M80 -463l6 62q154 -66 334 -66q201 0 290 76t107 239l29 228q-147 -86 -363 -86q-123 0 -204.5 40t-116.5 110.5t-45 165.5q-4 37 -4 76q0 62 10 130q14 119 45 208t85 162.5t145 112.5t214 39q221 0 346 -90l39 80h27l-143 -1174q-27 -209 -138.5 -290.5t-330.5 -81.5 q-199 0 -332 59zM178 342q8 -84 35 -150.5t97.5 -106.5t178.5 -40q215 0 363 86l94 762q-129 86 -342 86q-109 0 -188.5 -39t-124.5 -109.5t-68.5 -146.5t-36.5 -172q-11 -57 -11 -114q0 -28 3 -56z" />
<glyph unicode="h" horiz-adv-x="1032" d="M82 0l188 1536h62l-74 -590q72 41 176.5 64.5t194.5 23.5q180 0 250 -66q54 -51 53 -155q0 -30 -4 -65l-90 -748h-66l92 754q3 25 3 46q0 92 -49 131q-60 48 -197 48q-221 0 -369 -84l-109 -895h-61z" />
<glyph unicode="i" horiz-adv-x="491" d="M158 139l108 885h62l-109 -881q-3 -19 -2 -34q0 -32 11 -48q17 -23 73 -22l-6 -49q-139 0 -139 119q0 14 2 30zM272 1331q0 25 17.5 43.5t44.5 18.5q25 0 43 -18.5t18 -43.5q0 -27 -18.5 -44t-42.5 -17q-27 0 -44.5 17t-17.5 44z" />
<glyph unicode="j" horiz-adv-x="471" d="M-205 -522l8 55q279 0 306 207l157 1284h62l-156 -1272q-33 -274 -377 -274zM272 1331q0 25 17.5 43.5t44.5 18.5q25 0 43 -18.5t18 -43.5q0 -27 -18.5 -44t-42.5 -17q-27 0 -44.5 17t-17.5 44z" />
<glyph unicode="k" horiz-adv-x="958" d="M82 0l188 1536h62l-135 -1059l637 547h79l-479 -412l432 -612h-82l-393 573l-203 -170l-45 -403h-61z" />
<glyph unicode="l" horiz-adv-x="491" d="M158 139l172 1397h61l-172 -1393q-3 -19 -2 -34q0 -32 11 -48q17 -23 73 -22l-6 -49q-139 0 -139 119q0 14 2 30z" />
<glyph unicode="m" horiz-adv-x="1574" d="M82 0l125 1024h31l18 -80q154 90 344 90q201 0 246 -108q188 109 371 108q162 0 218 -62q44 -48 43 -144q0 -28 -3 -60l-95 -768h-65l94 774q3 30 3 55q0 80 -35 110q-46 40 -169 40q-180 0 -350 -100q3 -25 3 -52.5t-3 -58.5l-94 -768h-66l95 774q3 30 3 55 q0 80 -35 110q-46 40 -169 40q-188 0 -336 -84l-109 -895h-65z" />
<glyph unicode="n" horiz-adv-x="1036" d="M82 0l125 1024h31l18 -80q72 41 178.5 65.5t198.5 24.5q180 0 250 -66q54 -51 53 -155q0 -30 -4 -65l-90 -748h-66l92 754q3 25 3 46q0 92 -49 131q-60 48 -197 48q-221 0 -369 -84l-109 -895h-65z" />
<glyph unicode="o" horiz-adv-x="1089" d="M113 303q-3 30 -3 61q0 70 13 148q31 256 135 389t352 133q104 0 178 -25.5t113 -71.5t60 -111q19 -59 18 -130v-14q-2 -80 -12 -170q-14 -125 -42 -211t-80 -160.5t-142.5 -112.5t-221.5 -38t-213 39t-114.5 108.5t-40.5 165.5zM179 276q5 -104 81 -167.5t227 -63.5 q117 0 196 35t122 104.5t64.5 143t33.5 184.5q13 77 13 147q0 17 -1 34q-4 85 -29.5 148.5t-96 100.5t-187.5 37q-94 0 -163.5 -24.5t-111.5 -63.5t-72 -103.5t-44 -126t-25 -149.5q-9 -93 -8 -172q-1 -33 1 -64z" />
<glyph unicode="p" d="M18 -512l189 1536h26l19 -80q150 90 371 90q123 0 204.5 -40t115.5 -110.5t45 -165.5q4 -36 4 -75q0 -63 -11 -131q-29 -246 -139.5 -384t-347.5 -138q-215 0 -342 86l-72 -588h-62zM158 131q129 -86 342 -86q109 0 188.5 39t124.5 109.5t68.5 146.5t36.5 172 q11 57 10 114q0 28 -2 56q-8 84 -35 150.5t-97.5 106.5t-179.5 40q-215 0 -362 -86z" />
<glyph unicode="q" d="M117 306q-4 37 -4 76q0 62 10 130q14 119 45 208t85 162.5t145 112.5t214 39q221 0 346 -90l39 80h27l-188 -1536h-62l72 588q-145 -86 -363 -86q-123 0 -204.5 40t-116.5 110.5t-45 165.5zM178 342q8 -84 35 -150.5t97.5 -106.5t178.5 -40q215 0 363 86l94 762 q-129 86 -342 86q-109 0 -188.5 -39t-124.5 -109.5t-68.5 -146.5t-36.5 -172q-11 -57 -11 -114q0 -28 3 -56z" />
<glyph unicode="r" horiz-adv-x="724" d="M82 0l125 1024h31l18 -80q72 41 178.5 65.5t198.5 24.5q51 0 94 -6l-6 -55q-43 6 -96 6q-221 0 -369 -84l-109 -895h-65z" />
<glyph unicode="s" horiz-adv-x="925" d="M68 31l8 55q143 -41 278 -41q338 0 369 229q3 25 3 48q0 78 -39 114q-50 47 -222 68q-195 25 -256 79q-49 43 -49 128q0 23 4 49q35 274 405 274q160 0 279 -41l-6 -55q-147 41 -281 41q-170 0 -246.5 -54.5t-89.5 -164.5q-3 -23 -3 -42q0 -72 42 -103q53 -38 221 -58 q195 -25 255 -83q48 -46 48 -142q0 -26 -4 -56q-16 -127 -117.5 -206.5t-318.5 -79.5q-157 0 -280 41z" />
<glyph unicode="t" horiz-adv-x="757" d="M109 969l4 35l196 22l37 305l64 8l-39 -315h350l-6 -55h-350l-91 -721q-2 -16 -1 -32q0 -88 61 -129q72 -48 198 -48h25l-6 -49h-25q-172 0 -250 68q-64 57 -64 161q0 22 3 45l88 705h-194z" />
<glyph unicode="u" horiz-adv-x="1036" d="M104 276l93 748h65l-92 -754q-3 -28 -4 -51q0 -88 48 -126q60 -48 198 -48q225 0 368 84l111 895h65l-125 -1024h-30l-21 80q-70 -41 -176 -65.5t-198 -24.5q-180 0 -250 66q-55 53 -55 160q-1 28 3 60z" />
<glyph unicode="v" horiz-adv-x="946" d="M115 1024h73l234 -926l465 926h71l-534 -1034h-29z" />
<glyph unicode="w" horiz-adv-x="1363" d="M115 1024h69l129 -928l396 928h73l166 -928l359 928h69l-415 -1034h-50l-176 954l-409 -954h-50z" />
<glyph unicode="x" horiz-adv-x="876" d="M-31 0l439 528l-289 496h71l256 -451l367 451h72l-412 -496l311 -528h-73l-277 481l-391 -481h-74z" />
<glyph unicode="y" horiz-adv-x="1036" d="M12 -463l6 62q154 -66 334 -66q201 0 289 76t107 239l28 228q-154 -86 -370 -86q-180 0 -250 66q-55 53 -55 160q0 28 3 60l93 748h65l-92 -754q-3 -28 -4 -51q0 -88 48 -126q60 -48 198 -48q227 0 370 84l111 895h63l-143 -1174q-27 -209 -138.5 -290.5t-330.5 -81.5 q-199 0 -332 59z" />
<glyph unicode="z" horiz-adv-x="917" d="M10 0l4 39l797 936h-649l6 49h721l-4 -39l-801 -936h704l-4 -49h-774z" />
<glyph unicode="{" horiz-adv-x="573" d="M113 586l6 57h37q129 0 139 133l45 668q12 195 229 194h35l-8 -57h-35q-141 0 -153 -133l-46 -668q-6 -133 -120 -166q106 -31 80 -165l-119 -668q-20 -133 121 -133h34l-6 -58h-35q-100 0 -149 48.5t-31 146.5l119 668q23 133 -106 133h-37z" />
<glyph unicode="|" horiz-adv-x="442" d="M76 -410l252 2048h65l-252 -2048h-65z" />
<glyph unicode="}" horiz-adv-x="573" d="M-4 -410l6 58h35q145 0 153 133l46 668q8 135 120 165q-102 31 -80 166l119 668q25 133 -121 133h-34l8 57h35q100 0 149 -48t31 -146l-119 -668q-23 -133 107 -133h36l-6 -57h-37q-129 0 -139 -133l-45 -668q-14 -195 -229 -195h-35z" />
<glyph unicode="~" horiz-adv-x="1003" d="M123 670l6 61q82 70 209 70q70 0 123 -23.5t79.5 -51.5t72.5 -51.5t104 -23.5q129 0 211 76l-8 -61q-82 -70 -207 -70q-70 0 -123 23.5t-80 51t-73 51t-103 23.5q-135 1 -211 -75z" />
<glyph unicode="&#xa1;" horiz-adv-x="389" d="M25 -512l163 1106h33l-106 -1106h-90zM190 973q0 25 17.5 43t44.5 18q25 0 43 -18.5t18 -42.5q0 -27 -18.5 -44.5t-42.5 -17.5q-27 0 -44.5 17.5t-17.5 44.5z" />
<glyph unicode="&#xa2;" horiz-adv-x="1185" d="M121 641q31 254 189.5 388t475.5 134q31 0 48 -2l116 246h58l-123 -250q133 -12 241 -47l-6 -53q-184 51 -344 51q-285 0 -424 -121t-167.5 -346t82 -346t395.5 -121q162 0 356 51l-6 -53q-156 -53 -353 -53q-80 0 -165 10l-117 -256h-58l130 264q-381 76 -328 504z" />
<glyph unicode="&#xa3;" horiz-adv-x="1112" d="M-2 0l6 57h166l68 555h-166l8 58h166l28 245q23 184 132.5 279.5t347.5 95.5q197 0 309 -43l-6 -55q-137 43 -309 43q-193 0 -289.5 -76t-116.5 -241l-31 -248h527l-9 -58h-526l-67 -555h727l-7 -57h-958z" />
<glyph unicode="&#xa4;" horiz-adv-x="1310" d="M106 49l160 191q-135 129 -135 399q0 272 133 399l-158 191l54 45l159 -193q125 80 336 80q209 0 334 -80l162 193l53 -45l-160 -191q135 -125 136 -399q0 -268 -136 -399l160 -191l-53 -45l-164 193q-125 -80 -332 -80q-209 0 -333 80l-162 -193zM195 639 q0 -139 33.5 -233.5t100 -144.5t144.5 -69.5t182.5 -19.5t182 19.5t144.5 69.5t100.5 144.5t33.5 233.5t-33.5 233.5t-100.5 144.5t-144.5 69.5t-182 19.5t-182.5 -19.5t-144.5 -69.5t-100 -144.5t-33.5 -233.5z" />
<glyph unicode="&#xa5;" horiz-adv-x="1114" d="M100 467l9 57h405l-115 234h-262l6 57h226l-224 465h72l346 -729l522 729h72l-340 -465h227l-6 -57h-262l-172 -234h406l-9 -57h-419l-56 -467h-61l55 467h-420z" />
<glyph unicode="&#xa6;" horiz-adv-x="442" d="M76 -410l119 973h65l-119 -973h-65zM207 666l121 972h65l-121 -972h-65z" />
<glyph unicode="&#xa7;" horiz-adv-x="1267" d="M59 -463l9 64q164 -63 368 -64q244 0 351.5 91t125.5 249q23 178 -56 235.5t-339 86.5q-139 16 -216 34.5t-136.5 59.5t-74.5 108.5t-3 176.5q31 242 231 335q-47 72 -28 236q51 397 549 397q229 0 370 -59l-8 -64q-164 63 -368 64q-438 0 -480 -340q-23 -178 56 -235.5 t340 -86.5q274 -31 365 -100.5t65 -278.5q-27 -240 -232 -337q49 -80 29 -234q-51 -397 -549 -397q-228 0 -369 59zM152 575q-23 -178 56 -235t339 -86q281 -33 362 -100q182 78 207 295q23 178 -56 235t-337 86q-287 33 -363 98q-183 -78 -208 -293z" />
<glyph unicode="&#xa8;" horiz-adv-x="1167" d="M428 1331q0 25 17.5 43.5t43.5 18.5q25 0 43.5 -18.5t18.5 -43.5q0 -27 -18.5 -44t-43.5 -17q-27 0 -44 17t-17 44zM817 1331q0 25 17.5 43.5t44.5 18.5q25 0 43 -18.5t18 -43.5q0 -27 -18.5 -44t-42.5 -17q-27 0 -44.5 17t-17.5 44z" />
<glyph unicode="&#xa9;" horiz-adv-x="1585" d="M139 641q37 305 247 477t503 172t460 -172t130 -477t-247 -477t-503 -172t-460 172t-130 477zM198.5 641q-34.5 -279 113 -435.5t424 -156.5t462.5 156.5t221 435.5t-113.5 435.5t-425 156.5t-462 -156.5t-220 -435.5zM418 641q49 389 444 389q139 0 246 -39l-6 -55 q-109 39 -246 39q-162 0 -257 -77t-117.5 -257t55 -257t237.5 -77q137 0 254 39l-6 -55q-117 -39 -254 -39q-188 0 -281.5 94t-68.5 295z" />
<glyph unicode="&#xaa;" horiz-adv-x="831" d="M192.5 1157q26.5 207 112.5 298t250 91q51 0 119.5 -20.5t113.5 -61.5l33 70h31l-92 -754h-31l-16 70q-55 -41 -128 -61.5t-124 -20.5q-164 0 -229.5 91t-39 298zM256 1157q-23 -186 25.5 -260t185.5 -74q150 0 242 74l63 520q-74 74 -223 74q-137 0 -203.5 -74 t-89.5 -260z" />
<glyph unicode="&#xab;" horiz-adv-x="952" d="M80 489l6 46l428 331l-6 -61l-363 -293l291 -293l-8 -63zM469 489l6 46l428 331l-6 -61l-362 -293l290 -293l-8 -63z" />
<glyph unicode="&#xac;" horiz-adv-x="1228" d="M270 967l9 57h798l-63 -512h-58l56 455h-742z" />
<glyph unicode="&#xad;" horiz-adv-x="696" d="M133 670l6 57h471l-6 -57h-471z" />
<glyph unicode="&#xae;" horiz-adv-x="1585" d="M139 641q37 305 247 477t503 172t460 -172t130 -477t-247 -477t-503 -172t-460 172t-130 477zM198.5 641q-34.5 -279 113 -435.5t424 -156.5t462.5 156.5t221 435.5t-113.5 435.5t-425 156.5t-462 -156.5t-220 -435.5zM502 256l94 768h303q221 0 197 -217 q-10 -86 -56.5 -139.5t-113.5 -67.5l127 -344h-74l-115 334h-260l-41 -334h-61zM610 649h258q84 0 119 39t45 119q20 162 -125 162h-256z" />
<glyph unicode="&#xaf;" horiz-adv-x="1167" d="M401 1305l7 55h561l-6 -55h-562z" />
<glyph unicode="&#xb0;" horiz-adv-x="688" d="M166 1280q18 143 103 204.5t202 61.5t187.5 -61.5t52.5 -204.5q-12 -98 -61.5 -160.5t-110 -84t-133.5 -21.5q-115 0 -185.5 61.5t-54.5 204.5zM229.5 1280q-14.5 -113 32.5 -162t151.5 -49t162 49t72 162t-32 162t-151 49t-162.5 -49t-72.5 -162z" />
<glyph unicode="&#xb1;" horiz-adv-x="1228" d="M182 242l6 57h799l-6 -57h-799zM242 727l8 57h371l45 371h57l-45 -371h371l-9 -57h-370l-45 -371h-58l45 371h-370z" />
<glyph unicode="&#xb2;" horiz-adv-x="858" d="M104 698l7 39q465 319 528 371q106 86 125 160q4 14 6 32q12 106 -49.5 147.5t-204.5 41.5q-115 0 -260 -41l8 53q125 43 256 43q182 0 255 -63.5t59 -182.5q-12 -98 -100.5 -174.5t-416.5 -296.5q-72 -47 -110 -73h590l-9 -56h-684z" />
<glyph unicode="&#xb3;" horiz-adv-x="835" d="M131 735l6 51q141 -41 277 -41q160 0 237.5 47.5t89.5 143.5q12 104 -50 150.5t-222 46.5h-150l7 51h137q150 0 219.5 33.5t79.5 119.5q8 84 -51.5 118t-204.5 32q-131 0 -273 -41l7 53q125 45 272 45q176 0 249 -49t60 -158q-16 -139 -155 -176q162 -47 141 -223 q-31 -248 -399 -248q-173 0 -277 45z" />
<glyph unicode="&#xb4;" horiz-adv-x="1167" d="M639 1126l174 410h72l-205 -410h-41z" />
<glyph unicode="&#xb5;" horiz-adv-x="1036" d="M8 -512l189 1536h65l-92 -754q-16 -129 44 -177t198 -48q225 0 368 84l111 895h65l-125 -1024h-30l-21 80q-70 -41 -176 -65.5t-198 -24.5q-197 0 -261 78l-71 -580h-66z" />
<glyph unicode="&#xb6;" horiz-adv-x="1153" d="M217 1092q55 444 524 444h480l-189 -1536h-65l77 649h-196l-78 -649h-65l77 649h-151q-469 1 -414 443zM283 1092q-45 -385 346 -385h162l94 770h-162q-121 0 -208 -34t-133 -94.5t-67.5 -120.5t-31.5 -136zM856 707h197l94 770h-197z" />
<glyph unicode="&#xb7;" horiz-adv-x="389" d="M156 698q0 25 17 43.5t44 18.5q25 0 43.5 -18.5t18.5 -43.5q0 -27 -18.5 -44t-43.5 -17q-27 0 -44 17t-17 44z" />
<glyph unicode="&#xb8;" horiz-adv-x="1167" d="M307 -479l6 55q88 -33 150 -33q166 0 180 113q8 68 -38 104.5t-140 55.5l39 184h37l-11 -147q76 -16 130.5 -67.5t44.5 -125.5q-10 -78 -73 -125t-161 -47t-164 33z" />
<glyph unicode="&#xb9;" horiz-adv-x="552" d="M193 1442l2 22l294 80h23l-104 -846h-64l96 772z" />
<glyph unicode="&#xba;" horiz-adv-x="897" d="M192.5 1157q26.5 209 115.5 299t267 90q180 0 248 -90t41.5 -299t-116 -299t-267.5 -90q-180 0 -247.5 90t-41 299zM256 1157q-23 -184 30.5 -259t201 -75t219 75t94 259t-30.5 259t-200.5 75t-219 -75t-94.5 -259z" />
<glyph unicode="&#xbb;" horiz-adv-x="952" d="M49 156l8 63l361 293l-289 293l6 61l350 -331l-6 -46zM438 156l8 63l361 293l-289 293l6 61l350 -331l-6 -46z" />
<glyph unicode="&#xbc;" horiz-adv-x="1781" d="M193 1442l2 22l294 80h23l-104 -846h-64l96 772zM225 0l1274 1536h76l-1274 -1536h-76zM983 262l6 39l553 545h39l-65 -531h190l-6 -53h-191l-30 -262h-60l31 262h-467zM1075 315h381l53 426z" />
<glyph unicode="&#xbd;" horiz-adv-x="1923" d="M193 1442l2 22l294 80h23l-104 -846h-64l96 772zM225 0l1274 1536h76l-1274 -1536h-76zM1085 0l5 39q467 322 528 373q109 86 127 159q4 14 6 31q12 106 -50.5 147.5t-205.5 41.5q-115 0 -260 -41l8 53q125 43 256 43q182 0 256 -63.5t57 -182.5q-10 -96 -99 -174 t-406 -291q-78 -51 -121 -80h590l-7 -55h-684z" />
<glyph unicode="&#xbe;" horiz-adv-x="2007" d="M131 735l6 51q141 -41 277 -41q160 0 237.5 47.5t89.5 143.5q12 104 -50 150.5t-222 46.5h-150l7 51h137q150 0 219.5 33.5t79.5 119.5q8 84 -51.5 118t-204.5 32q-131 0 -273 -41l7 53q125 45 272 45q176 0 249 -49t60 -158q-16 -139 -155 -176q162 -47 141 -223 q-31 -248 -399 -248q-173 0 -277 45zM451 0l1273 1536h76l-1274 -1536h-75zM1208 262l6 39l553 545h39l-65 -531h190l-6 -53h-190l-31 -262h-59l30 262h-467zM1300 315h381l54 426z" />
<glyph unicode="&#xbf;" horiz-adv-x="962" d="M-20 -246.5q0 58.5 4 119.5q6 49 15 90t27.5 75t31 58.5t43 48t46 36t58.5 31.5t61.5 26.5t72.5 28t75 28.5q127 49 160.5 107.5t43.5 191.5h37q6 -51 0 -86q-14 -106 -68.5 -167.5t-180.5 -107.5q-18 -6 -63.5 -21t-63 -22.5t-54.5 -25t-54 -31.5t-43 -39.5t-39 -55.5 t-25.5 -71t-18.5 -92q-10 -78 1 -134t51 -106.5t126 -76t219 -25.5q137 0 303 45l-6 -55q-127 -45 -303 -45q-125 0 -215 21.5t-138 58t-75.5 87t-27.5 109zM584 973q0 25 17 43t44 18q25 0 43.5 -18.5t18.5 -42.5q0 -27 -18.5 -44.5t-43.5 -17.5q-27 0 -44 17.5t-17 44.5z " />
<glyph unicode="&#xc0;" horiz-adv-x="1232" d="M-10 0l731 1546h45l354 -1546h-76l-100 444h-674l-204 -444h-76zM297 502h637l-205 930zM580 1843h104l98 -205h-53z" />
<glyph unicode="&#xc1;" horiz-adv-x="1232" d="M-10 0l731 1546h45l354 -1546h-76l-100 444h-674l-204 -444h-76zM297 502h637l-205 930zM729 1638l148 205h104l-199 -205h-53z" />
<glyph unicode="&#xc2;" horiz-adv-x="1232" d="M-10 0l731 1546h45l354 -1546h-76l-100 444h-674l-204 -444h-76zM297 502h637l-205 930zM459 1638l286 205h70l238 -205h-60l-219 156l-256 -156h-59z" />
<glyph unicode="&#xc3;" horiz-adv-x="1232" d="M-10 0l731 1546h45l354 -1546h-76l-100 444h-674l-204 -444h-76zM297 502h637l-205 930zM434 1657q35 180 201 180q49 0 87 -22.5t58.5 -48t53 -48t71.5 -22.5q117 0 139 129h58q-35 -180 -201 -180q-49 0 -87 22.5t-58.5 48t-53 48t-71.5 22.5q-119 0 -139 -129h-58z " />
<glyph unicode="&#xc4;" horiz-adv-x="1232" d="M-10 0l731 1546h45l354 -1546h-76l-100 444h-674l-204 -444h-76zM297 502h637l-205 930zM512 1741q0 25 17.5 43t43.5 18q25 0 43.5 -18.5t18.5 -42.5q0 -27 -18.5 -44.5t-43.5 -17.5q-27 0 -44 17.5t-17 44.5zM901 1741q0 25 17.5 43t44.5 18q25 0 43 -18.5t18 -42.5 q0 -27 -18.5 -44.5t-42.5 -17.5q-27 0 -44.5 17.5t-17.5 44.5z" />
<glyph unicode="&#xc5;" horiz-adv-x="1232" d="M-10 0l731 1546h45l354 -1546h-76l-100 444h-674l-204 -444h-76zM297 502h637l-205 930zM575.5 1740.5q18.5 145.5 211 145.5t174 -145.5t-211 -145.5t-174 145.5zM625 1741q-6 -47 25.5 -73t105.5 -26q137 0 151 99q4 47 -25.5 72.5t-101.5 25.5q-145 0 -155 -98z" />
<glyph unicode="&#xc6;" horiz-adv-x="1914" d="M-8 0l960 1536h977l-8 -59h-903l33 -652h714l-6 -57h-704l37 -709h655l-6 -59h-715l-22 444h-664l-272 -444h-76zM377 502h624l-45 936z" />
<glyph unicode="&#xc7;" horiz-adv-x="1196" d="M145 768q47 391 205 584.5t484 193.5q229 0 370 -59l-8 -64q-164 63 -369 64q-283 0 -428 -176t-188 -543q-45 -369 56.5 -544t381.5 -175q205 0 385 64l-8 -64q-145 -57 -364 -59l-9 -137q76 -16 130.5 -67.5t43.5 -125.5q-10 -78 -72.5 -125t-160.5 -47t-164 33l6 55 q88 -33 150 -33q166 0 180 113q8 68 -38 104.5t-140 55.5l35 176q-313 6 -420 198.5t-58 577.5z" />
<glyph unicode="&#xc8;" horiz-adv-x="1107" d="M82 0l188 1536h852l-8 -59h-786l-80 -652h710l-6 -57h-710l-88 -709h786l-6 -59h-852zM547 1843h104l99 -205h-54z" />
<glyph unicode="&#xc9;" horiz-adv-x="1107" d="M82 0l188 1536h852l-8 -59h-786l-80 -652h710l-6 -57h-710l-88 -709h786l-6 -59h-852zM696 1638l148 205h104l-198 -205h-54z" />
<glyph unicode="&#xca;" horiz-adv-x="1107" d="M82 0l188 1536h852l-8 -59h-786l-80 -652h710l-6 -57h-710l-88 -709h786l-6 -59h-852zM426 1638l287 205h69l238 -205h-59l-220 156l-256 -156h-59z" />
<glyph unicode="&#xcb;" horiz-adv-x="1107" d="M82 0l188 1536h852l-8 -59h-786l-80 -652h710l-6 -57h-710l-88 -709h786l-6 -59h-852zM479 1741q0 25 17.5 43t44.5 18q25 0 43 -18.5t18 -42.5q0 -27 -18.5 -44.5t-42.5 -17.5q-27 0 -44.5 17.5t-17.5 44.5zM868 1741q0 25 17.5 43t44.5 18q25 0 43 -18.5t18 -42.5 q0 -27 -18.5 -44.5t-42.5 -17.5q-27 0 -44.5 17.5t-17.5 44.5z" />
<glyph unicode="&#xcc;" horiz-adv-x="442" d="M127 0l188 1536h66l-188 -1536h-66zM184 1843h105l98 -205h-53z" />
<glyph unicode="&#xcd;" horiz-adv-x="442" d="M127 0l188 1536h66l-188 -1536h-66zM334 1638l147 205h105l-199 -205h-53z" />
<glyph unicode="&#xce;" horiz-adv-x="442" d="M63 1638l287 205h70l237 -205h-59l-219 156l-256 -156h-60zM127 0l188 1536h66l-188 -1536h-66z" />
<glyph unicode="&#xcf;" horiz-adv-x="442" d="M127 0l188 1536h66l-188 -1536h-66zM158 1741q0 25 17.5 43t43.5 18q25 0 43.5 -18.5t18.5 -42.5q0 -27 -18.5 -44.5t-43.5 -17.5q-27 0 -44 17.5t-17 44.5zM465 1741q0 25 17.5 43t43.5 18q25 0 43.5 -18.5t18.5 -42.5q0 -27 -18.5 -44.5t-43.5 -17.5q-27 0 -44 17.5 t-17 44.5z" />
<glyph unicode="&#xd0;" horiz-adv-x="1372" d="M70 741l6 58h184l92 737h445q236 0 357.5 -92t143 -263t-5.5 -413q-25 -193 -64.5 -325t-116.5 -237.5t-201 -155.5t-302 -50h-444l90 741h-184zM236 59h368q307 0 440.5 167t180.5 542q45 375 -47.5 542t-399.5 167h-368l-84 -678h366l-6 -58h-367z" />
<glyph unicode="&#xd1;" horiz-adv-x="1318" d="M82 0l188 1536h41l756 -1393l168 1393h68l-189 -1536h-41l-758 1393l-165 -1393h-68zM477 1657q35 180 201 180q49 0 87 -22.5t58.5 -48t53 -48t71.5 -22.5q117 0 139 129h58q-35 -180 -201 -180q-49 0 -87 22.5t-58.5 48t-53 48t-71.5 22.5q-119 0 -139 -129h-58z" />
<glyph unicode="&#xd2;" horiz-adv-x="1347" d="M125 449.5q-6 144.5 20 318.5q18 154 43 262.5t72 212t114.5 165.5t175 100t251.5 38q178 0 287.5 -56t151.5 -157.5t48 -246t-20 -318.5q-18 -154 -43 -262.5t-72 -212t-115.5 -165.5t-176 -100t-251.5 -38q-178 0 -286.5 56t-150.5 157.5t-48 246zM196.5 372.5 q14.5 -159.5 115 -241.5t304.5 -82q156 0 260.5 44t169 141.5t98.5 220.5t58 313q29 236 14.5 395.5t-116 241.5t-305.5 82q-156 0 -260.5 -44t-169 -141.5t-98.5 -220.5t-56 -313q-29 -236 -14.5 -395.5zM637 1843h104l99 -205h-54z" />
<glyph unicode="&#xd3;" horiz-adv-x="1347" d="M125 449.5q-6 144.5 20 318.5q18 154 43 262.5t72 212t114.5 165.5t175 100t251.5 38q178 0 287.5 -56t151.5 -157.5t48 -246t-20 -318.5q-18 -154 -43 -262.5t-72 -212t-115.5 -165.5t-176 -100t-251.5 -38q-178 0 -286.5 56t-150.5 157.5t-48 246zM196.5 372.5 q14.5 -159.5 115 -241.5t304.5 -82q156 0 260.5 44t169 141.5t98.5 220.5t58 313q29 236 14.5 395.5t-116 241.5t-305.5 82q-156 0 -260.5 -44t-169 -141.5t-98.5 -220.5t-56 -313q-29 -236 -14.5 -395.5zM786 1638l148 205h104l-198 -205h-54z" />
<glyph unicode="&#xd4;" horiz-adv-x="1347" d="M125 449.5q-6 144.5 20 318.5q18 154 43 262.5t72 212t114.5 165.5t175 100t251.5 38q178 0 287.5 -56t151.5 -157.5t48 -246t-20 -318.5q-18 -154 -43 -262.5t-72 -212t-115.5 -165.5t-176 -100t-251.5 -38q-178 0 -286.5 56t-150.5 157.5t-48 246zM196.5 372.5 q14.5 -159.5 115 -241.5t304.5 -82q156 0 260.5 44t169 141.5t98.5 220.5t58 313q29 236 14.5 395.5t-116 241.5t-305.5 82q-156 0 -260.5 -44t-169 -141.5t-98.5 -220.5t-56 -313q-29 -236 -14.5 -395.5zM516 1638l287 205h69l238 -205h-59l-220 156l-256 -156h-59z" />
<glyph unicode="&#xd5;" horiz-adv-x="1347" d="M125 449.5q-6 144.5 20 318.5q18 154 43 262.5t72 212t114.5 165.5t175 100t251.5 38q178 0 287.5 -56t151.5 -157.5t48 -246t-20 -318.5q-18 -154 -43 -262.5t-72 -212t-115.5 -165.5t-176 -100t-251.5 -38q-178 0 -286.5 56t-150.5 157.5t-48 246zM196.5 372.5 q14.5 -159.5 115 -241.5t304.5 -82q156 0 260.5 44t169 141.5t98.5 220.5t58 313q29 236 14.5 395.5t-116 241.5t-305.5 82q-156 0 -260.5 -44t-169 -141.5t-98.5 -220.5t-56 -313q-29 -236 -14.5 -395.5zM492 1657q35 180 200 180q49 0 87 -22.5t58.5 -48t53.5 -48 t72 -22.5q117 0 139 129h57q-35 -180 -201 -180q-49 0 -86.5 22.5t-58 48t-53.5 48t-72 22.5q-119 0 -139 -129h-57z" />
<glyph unicode="&#xd6;" horiz-adv-x="1347" d="M125 449.5q-6 144.5 20 318.5q18 154 43 262.5t72 212t114.5 165.5t175 100t251.5 38q178 0 287.5 -56t151.5 -157.5t48 -246t-20 -318.5q-18 -154 -43 -262.5t-72 -212t-115.5 -165.5t-176 -100t-251.5 -38q-178 0 -286.5 56t-150.5 157.5t-48 246zM196.5 372.5 q14.5 -159.5 115 -241.5t304.5 -82q156 0 260.5 44t169 141.5t98.5 220.5t58 313q29 236 14.5 395.5t-116 241.5t-305.5 82q-156 0 -260.5 -44t-169 -141.5t-98.5 -220.5t-56 -313q-29 -236 -14.5 -395.5zM569 1741q0 25 17.5 43t44.5 18q25 0 43 -18.5t18 -42.5 q0 -27 -18.5 -44.5t-42.5 -17.5q-27 0 -44.5 17.5t-17.5 44.5zM958 1741q0 25 17.5 43t44.5 18q25 0 43 -18.5t18 -42.5q0 -27 -18.5 -44.5t-42.5 -17.5q-27 0 -44.5 17.5t-17.5 44.5z" />
<glyph unicode="&#xd7;" horiz-adv-x="1228" d="M303 436l293 262l-229 263l47 40l229 -262l295 262l35 -40l-295 -263l231 -262l-47 -41l-229 262l-295 -262z" />
<glyph unicode="&#xd8;" horiz-adv-x="1347" d="M123 0l92 131q-76 94 -89 265t19 372q18 154 43 262.5t72 212t114.5 165.5t175 100t251.5 38q236 0 354 -100l66 90h73l-98 -135q74 -94 88 -263t-16 -370q-18 -154 -43 -262.5t-72 -212t-115.5 -165.5t-176 -100t-251.5 -38q-236 0 -352 98l-61 -88h-74zM191.5 424.5 q9.5 -150.5 66.5 -234.5l858 1201q-102 96 -321 96q-156 0 -260.5 -44t-169 -141.5t-98.5 -220.5t-56 -313q-29 -193 -19.5 -343.5zM297 143q100 -94 319 -94q156 0 260.5 44t169 141.5t98.5 220.5t58 313q51 428 -47 575z" />
<glyph unicode="&#xd9;" horiz-adv-x="1318" d="M131 498l129 1038h64l-129 -1036q-31 -254 69.5 -352.5t338 -98.5t362.5 98.5t155 352.5l129 1036h64l-129 -1038q-18 -154 -71.5 -257.5t-136.5 -156.5t-173 -73.5t-207 -20.5t-202 20.5t-155.5 73.5t-98 156.5t-9.5 257.5zM623 1843h104l98 -205h-53z" />
<glyph unicode="&#xda;" horiz-adv-x="1318" d="M131 498l129 1038h64l-129 -1036q-31 -254 69.5 -352.5t338 -98.5t362.5 98.5t155 352.5l129 1036h64l-129 -1038q-18 -154 -71.5 -257.5t-136.5 -156.5t-173 -73.5t-207 -20.5t-202 20.5t-155.5 73.5t-98 156.5t-9.5 257.5zM772 1638l148 205h104l-199 -205h-53z" />
<glyph unicode="&#xdb;" horiz-adv-x="1318" d="M131 498l129 1038h64l-129 -1036q-31 -254 69.5 -352.5t338 -98.5t362.5 98.5t155 352.5l129 1036h64l-129 -1038q-18 -154 -71.5 -257.5t-136.5 -156.5t-173 -73.5t-207 -20.5t-202 20.5t-155.5 73.5t-98 156.5t-9.5 257.5zM502 1638l286 205h70l238 -205h-60l-219 156 l-256 -156h-59z" />
<glyph unicode="&#xdc;" horiz-adv-x="1318" d="M131 498l129 1038h64l-129 -1036q-31 -254 69.5 -352.5t338 -98.5t362.5 98.5t155 352.5l129 1036h64l-129 -1038q-18 -154 -71.5 -257.5t-136.5 -156.5t-173 -73.5t-207 -20.5t-202 20.5t-155.5 73.5t-98 156.5t-9.5 257.5zM555 1741q0 25 17.5 43t43.5 18 q25 0 43.5 -18.5t18.5 -42.5q0 -27 -18.5 -44.5t-43.5 -17.5q-27 0 -44 17.5t-17 44.5zM944 1741q0 25 17.5 43t44.5 18q25 0 43 -18.5t18 -42.5q0 -27 -18.5 -44.5t-42.5 -17.5q-27 0 -44.5 17.5t-17.5 44.5z" />
<glyph unicode="&#xdd;" horiz-adv-x="1265" d="M178 1536h80l397 -848l607 848h79l-661 -907l-76 -629h-65l75 629zM745 1638l148 205h104l-198 -205h-54z" />
<glyph unicode="&#xde;" horiz-adv-x="1153" d="M82 0l188 1536h66l-41 -324h414q467 0 415 -444q-55 -442 -524 -442h-414l-39 -326h-65zM193 383h423q393 0 443 385q4 53 5 107.5t-20.5 104.5t-56.5 88t-105.5 61.5t-168.5 23.5h-424z" />
<glyph unicode="&#xdf;" horiz-adv-x="1116" d="M51 -512l213 1739q39 319 375 319t299 -309q-10 -76 -51 -130t-95.5 -85t-107.5 -59.5t-93 -73.5t-48 -109q-10 -82 26.5 -115.5t145.5 -70.5q162 -55 222 -114.5t44 -182.5q-14 -131 -109.5 -219t-271.5 -88q-150 0 -215 41l6 51q111 -39 215 -39q82 0 143.5 24.5 t95.5 65.5t51 81t24 81q10 80 -28 135t-144 88q-166 51 -221.5 100.5t-43.5 161.5q8 74 50 126t96 82l106 60q53 30 94 76.5t50 112.5q29 254 -246 254q-131 0 -213 -67.5t-98 -196.5l-213 -1739h-58z" />
<glyph unicode="&#xe0;" d="M116.5 306q-10.5 95 6.5 206q14 119 45 208t85 162.5t145 112.5t214 39q221 0 346 -90l39 80h27l-125 -1024h-27l-20 80q-145 -90 -369 -90q-123 0 -204.5 40t-116.5 110.5t-45.5 165.5zM178 342q8 -84 35 -150.5t97.5 -106.5t178.5 -40q215 0 363 86l94 762 q-129 86 -342 86q-109 0 -188.5 -39t-124.5 -109.5t-68.5 -146.5t-36.5 -172q-16 -86 -8 -170zM500 1536h71l72 -410h-41z" />
<glyph unicode="&#xe1;" d="M116.5 306q-10.5 95 6.5 206q14 119 45 208t85 162.5t145 112.5t214 39q221 0 346 -90l39 80h27l-125 -1024h-27l-20 80q-145 -90 -369 -90q-123 0 -204.5 40t-116.5 110.5t-45.5 165.5zM178 342q8 -84 35 -150.5t97.5 -106.5t178.5 -40q215 0 363 86l94 762 q-129 86 -342 86q-109 0 -188.5 -39t-124.5 -109.5t-68.5 -146.5t-36.5 -172q-16 -86 -8 -170zM602 1126l174 410h72l-205 -410h-41z" />
<glyph unicode="&#xe2;" d="M116.5 306q-10.5 95 6.5 206q14 119 45 208t85 162.5t145 112.5t214 39q221 0 346 -90l39 80h27l-125 -1024h-27l-20 80q-145 -90 -369 -90q-123 0 -204.5 40t-116.5 110.5t-45.5 165.5zM178 342q8 -84 35 -150.5t97.5 -106.5t178.5 -40q215 0 363 86l94 762 q-129 86 -342 86q-109 0 -188.5 -39t-124.5 -109.5t-68.5 -146.5t-36.5 -172q-16 -86 -8 -170zM285 1126l358 410h62l256 -410h-50l-245 344l-332 -344h-49z" />
<glyph unicode="&#xe3;" d="M116.5 306q-10.5 95 6.5 206q14 119 45 208t85 162.5t145 112.5t214 39q221 0 346 -90l39 80h27l-125 -1024h-27l-20 80q-145 -90 -369 -90q-123 0 -204.5 40t-116.5 110.5t-45.5 165.5zM178 342q8 -84 35 -150.5t97.5 -106.5t178.5 -40q215 0 363 86l94 762 q-129 86 -342 86q-109 0 -188.5 -39t-124.5 -109.5t-68.5 -146.5t-36.5 -172q-16 -86 -8 -170zM313 1247q35 180 201 180q61 0 105.5 -35.5t81 -70.5t85.5 -35q117 0 138 129h57q-35 -180 -199 -180q-61 0 -105 36t-81 70.5t-86 34.5q-117 0 -139 -129h-58z" />
<glyph unicode="&#xe4;" d="M116.5 306q-10.5 95 6.5 206q14 119 45 208t85 162.5t145 112.5t214 39q221 0 346 -90l39 80h27l-125 -1024h-27l-20 80q-145 -90 -369 -90q-123 0 -204.5 40t-116.5 110.5t-45.5 165.5zM178 342q8 -84 35 -150.5t97.5 -106.5t178.5 -40q215 0 363 86l94 762 q-129 86 -342 86q-109 0 -188.5 -39t-124.5 -109.5t-68.5 -146.5t-36.5 -172q-16 -86 -8 -170zM391 1331q0 25 17.5 43.5t44.5 18.5q25 0 43 -18.5t18 -43.5q0 -27 -18.5 -44t-42.5 -17q-27 0 -44.5 17t-17.5 44zM780 1331q0 25 17.5 43.5t44.5 18.5q25 0 43 -18.5t18 -43.5 q0 -27 -18.5 -44t-42.5 -17q-27 0 -44.5 17t-17.5 44z" />
<glyph unicode="&#xe5;" d="M116.5 306q-10.5 95 6.5 206q14 119 45 208t85 162.5t145 112.5t214 39q221 0 346 -90l39 80h27l-125 -1024h-27l-20 80q-145 -90 -369 -90q-123 0 -204.5 40t-116.5 110.5t-45.5 165.5zM178 342q8 -84 35 -150.5t97.5 -106.5t178.5 -40q215 0 363 86l94 762 q-129 86 -342 86q-109 0 -188.5 -39t-124.5 -109.5t-68.5 -146.5t-36.5 -172q-16 -86 -8 -170zM455 1331q23 190 217 191q188 0 166 -191q-23 -188 -213 -188q-193 0 -170 188zM504 1331q-16 -141 127 -141q139 0 155 141q18 141 -120 142q-144 -1 -162 -142z" />
<glyph unicode="&#xe6;" horiz-adv-x="1714" d="M66 283q16 129 111 193.5t300 64.5h318l20 168q18 150 -39 210t-237 60q-182 0 -299 -43l6 55q125 43 301 43q172 0 247.5 -51t88.5 -152q117 203 397 203q199 0 275.5 -72.5t60.5 -201.5q-33 -276 -406 -277h-360q-12 -86 -2 -165.5t37.5 -140t96.5 -96.5t175 -36 q170 0 332 51l-6 -55q-139 -51 -332 -51q-242 0 -322 147q-35 -27 -86 -57q-68 -41 -171 -65.5t-185 -24.5q-186 0 -260.5 80t-60.5 213zM129 283q-12 -109 43 -173.5t225 -64.5q184 0 348 94q31 16 62 47q-39 98 -21 297h-342q-154 0 -227.5 -49t-87.5 -151zM858 541h361 q170 0 246.5 54t89 164.5t-50 165t-232.5 54.5q-201 0 -293 -117.5t-121 -320.5z" />
<glyph unicode="&#xe7;" horiz-adv-x="933" d="M121.5 246.5q-17.5 105.5 1.5 265.5q31 252 140.5 387t348.5 135q160 0 279 -41l-6 -55q-147 41 -281 41q-88 0 -157.5 -26.5t-112.5 -67.5t-75 -104.5t-47 -126t-26 -142.5q-16 -90 -8 -175t35 -149.5t96.5 -103.5t179.5 -39q131 0 291 41l-8 -55q-129 -41 -289 -41 l-8 -137q76 -16 130 -67.5t44 -125.5q-10 -78 -72.5 -125t-161 -47t-163.5 33l6 55q88 -33 150 -33q166 0 180 113q8 68 -38 104.5t-140 55.5l34 176q-147 6 -226 77.5t-96.5 177z" />
<glyph unicode="&#xe8;" horiz-adv-x="1046" d="M116.5 301q-10.5 96 6.5 211q31 252 140.5 387t348.5 135q199 0 276 -72.5t60 -201.5q-33 -276 -405 -277h-361q-12 -86 -2 -165.5t38 -140t96.5 -96.5t174.5 -36q170 0 332 51l-6 -55q-139 -51 -332 -51q-125 0 -205.5 39t-115.5 107.5t-45.5 164.5zM190 541h361 q170 0 246.5 54t89 164.5t-50 165t-232.5 54.5q-201 0 -293 -117.5t-121 -320.5zM500 1536h71l72 -410h-41z" />
<glyph unicode="&#xe9;" horiz-adv-x="1046" d="M116.5 301q-10.5 96 6.5 211q31 252 140.5 387t348.5 135q199 0 276 -72.5t60 -201.5q-33 -276 -405 -277h-361q-12 -86 -2 -165.5t38 -140t96.5 -96.5t174.5 -36q170 0 332 51l-6 -55q-139 -51 -332 -51q-125 0 -205.5 39t-115.5 107.5t-45.5 164.5zM190 541h361 q170 0 246.5 54t89 164.5t-50 165t-232.5 54.5q-201 0 -293 -117.5t-121 -320.5zM602 1126l174 410h72l-205 -410h-41z" />
<glyph unicode="&#xea;" horiz-adv-x="1046" d="M116.5 301q-10.5 96 6.5 211q31 252 140.5 387t348.5 135q199 0 276 -72.5t60 -201.5q-33 -276 -405 -277h-361q-12 -86 -2 -165.5t38 -140t96.5 -96.5t174.5 -36q170 0 332 51l-6 -55q-139 -51 -332 -51q-125 0 -205.5 39t-115.5 107.5t-45.5 164.5zM190 541h361 q170 0 246.5 54t89 164.5t-50 165t-232.5 54.5q-201 0 -293 -117.5t-121 -320.5zM285 1126l358 410h62l256 -410h-50l-245 344l-332 -344h-49z" />
<glyph unicode="&#xeb;" horiz-adv-x="1046" d="M116.5 301q-10.5 96 6.5 211q31 252 140.5 387t348.5 135q199 0 276 -72.5t60 -201.5q-33 -276 -405 -277h-361q-12 -86 -2 -165.5t38 -140t96.5 -96.5t174.5 -36q170 0 332 51l-6 -55q-139 -51 -332 -51q-125 0 -205.5 39t-115.5 107.5t-45.5 164.5zM190 541h361 q170 0 246.5 54t89 164.5t-50 165t-232.5 54.5q-201 0 -293 -117.5t-121 -320.5zM391 1331q0 25 17.5 43.5t44.5 18.5q25 0 43 -18.5t18 -43.5q0 -27 -18.5 -44t-42.5 -17q-27 0 -44.5 17t-17.5 44zM780 1331q0 25 17.5 43.5t44.5 18.5q25 0 43 -18.5t18 -43.5 q0 -27 -18.5 -44t-42.5 -17q-27 0 -44.5 17t-17.5 44z" />
<glyph unicode="&#xec;" horiz-adv-x="491" d="M158 139l108 885h62l-109 -881q-8 -59 9.5 -81.5t72.5 -22.5l-6 -49q-155 -1 -137 149zM186 1536h72l72 -410h-41z" />
<glyph unicode="&#xed;" horiz-adv-x="491" d="M158 139l108 885h62l-109 -881q-8 -59 9.5 -81.5t72.5 -22.5l-6 -49q-155 -1 -137 149zM289 1126l174 410h72l-205 -410h-41z" />
<glyph unicode="&#xee;" horiz-adv-x="491" d="M-29 1126l359 410h61l256 -410h-49l-246 344l-332 -344h-49zM158 139l108 885h62l-109 -881q-8 -59 9.5 -81.5t72.5 -22.5l-6 -49q-155 -1 -137 149z" />
<glyph unicode="&#xef;" horiz-adv-x="491" d="M119 1331q0 25 17.5 43.5t43.5 18.5q25 0 43.5 -18.5t18.5 -43.5q0 -27 -18.5 -44t-43.5 -17q-27 0 -44 17t-17 44zM158 139l108 885h62l-109 -881q-8 -59 9.5 -81.5t72.5 -22.5l-6 -49q-155 -1 -137 149zM426 1331q0 25 17.5 43.5t43.5 18.5q25 0 43.5 -18.5t18.5 -43.5 q0 -27 -18.5 -44t-43.5 -17q-27 0 -44 17t-17 44z" />
<glyph unicode="&#xf0;" horiz-adv-x="1007" d="M71.5 303q-8.5 96 10.5 209q31 256 135.5 389t351.5 133q199 0 291 -119q-39 231 -215 426l-346 -165l6 57l303 145q-96 94 -217 158h111q84 -53 166 -131l270 131l-8 -57l-228 -111q276 -315 230 -817l-6 -39q-14 -125 -42 -211t-80 -160.5t-142.5 -112.5t-221.5 -38 t-213 39t-114.5 108.5t-41 165.5zM138 276.5q5 -104.5 81 -168t227 -63.5q117 0 196 35t122 104.5t64.5 143t33.5 184.5q16 96 12 181t-29.5 148.5t-96 100.5t-187.5 37q-94 0 -163.5 -24.5t-111.5 -63.5t-72 -103.5t-44 -126t-25 -149.5q-12 -131 -7 -235.5z" />
<glyph unicode="&#xf1;" horiz-adv-x="1036" d="M82 0l125 1024h31l18 -80q72 41 178.5 65.5t198.5 24.5q180 0 249.5 -66.5t49.5 -219.5l-90 -748h-66l92 754q14 129 -46 177t-197 48q-221 0 -369 -84l-109 -895h-65zM289 1247q35 180 200 180q61 0 105.5 -35.5t81.5 -70.5t86 -35q117 0 137 129h57q-35 -180 -198 -180 q-61 0 -105.5 36t-81 70.5t-86.5 34.5q-117 0 -139 -129h-57z" />
<glyph unicode="&#xf2;" horiz-adv-x="1089" d="M112.5 303q-8.5 96 10.5 209q31 256 135 389t352 133q104 0 178 -25.5t113 -71.5t59.5 -110.5t18.5 -144.5t-12 -170q-14 -125 -42 -211t-80 -160.5t-142.5 -112.5t-221.5 -38t-213 39t-114.5 108.5t-41 165.5zM179 276.5q5 -104.5 81 -168t227 -63.5q117 0 196 35 t122 104.5t64.5 143t33.5 184.5q16 96 12 181t-29.5 148.5t-96 100.5t-187.5 37q-94 0 -163.5 -24.5t-111.5 -63.5t-72 -103.5t-44 -126t-25 -149.5q-12 -131 -7 -235.5zM498 1536h71l72 -410h-41z" />
<glyph unicode="&#xf3;" horiz-adv-x="1089" d="M112.5 303q-8.5 96 10.5 209q31 256 135 389t352 133q104 0 178 -25.5t113 -71.5t59.5 -110.5t18.5 -144.5t-12 -170q-14 -125 -42 -211t-80 -160.5t-142.5 -112.5t-221.5 -38t-213 39t-114.5 108.5t-41 165.5zM179 276.5q5 -104.5 81 -168t227 -63.5q117 0 196 35 t122 104.5t64.5 143t33.5 184.5q16 96 12 181t-29.5 148.5t-96 100.5t-187.5 37q-94 0 -163.5 -24.5t-111.5 -63.5t-72 -103.5t-44 -126t-25 -149.5q-12 -131 -7 -235.5zM600 1126l174 410h72l-205 -410h-41z" />
<glyph unicode="&#xf4;" horiz-adv-x="1089" d="M112.5 303q-8.5 96 10.5 209q31 256 135 389t352 133q104 0 178 -25.5t113 -71.5t59.5 -110.5t18.5 -144.5t-12 -170q-14 -125 -42 -211t-80 -160.5t-142.5 -112.5t-221.5 -38t-213 39t-114.5 108.5t-41 165.5zM179 276.5q5 -104.5 81 -168t227 -63.5q117 0 196 35 t122 104.5t64.5 143t33.5 184.5q16 96 12 181t-29.5 148.5t-96 100.5t-187.5 37q-94 0 -163.5 -24.5t-111.5 -63.5t-72 -103.5t-44 -126t-25 -149.5q-12 -131 -7 -235.5zM283 1126l358 410h61l256 -410h-49l-245 344l-332 -344h-49z" />
<glyph unicode="&#xf5;" horiz-adv-x="1089" d="M112.5 303q-8.5 96 10.5 209q31 256 135 389t352 133q104 0 178 -25.5t113 -71.5t59.5 -110.5t18.5 -144.5t-12 -170q-14 -125 -42 -211t-80 -160.5t-142.5 -112.5t-221.5 -38t-213 39t-114.5 108.5t-41 165.5zM179 276.5q5 -104.5 81 -168t227 -63.5q117 0 196 35 t122 104.5t64.5 143t33.5 184.5q16 96 12 181t-29.5 148.5t-96 100.5t-187.5 37q-94 0 -163.5 -24.5t-111.5 -63.5t-72 -103.5t-44 -126t-25 -149.5q-12 -131 -7 -235.5zM311 1247q35 180 201 180q61 0 105.5 -35.5t81 -70.5t85.5 -35q117 0 138 129h57q-35 -180 -199 -180 q-61 0 -105 36t-81 70.5t-86 34.5q-117 0 -139 -129h-58z" />
<glyph unicode="&#xf6;" horiz-adv-x="1089" d="M112.5 303q-8.5 96 10.5 209q31 256 135 389t352 133q104 0 178 -25.5t113 -71.5t59.5 -110.5t18.5 -144.5t-12 -170q-14 -125 -42 -211t-80 -160.5t-142.5 -112.5t-221.5 -38t-213 39t-114.5 108.5t-41 165.5zM179 276.5q5 -104.5 81 -168t227 -63.5q117 0 196 35 t122 104.5t64.5 143t33.5 184.5q16 96 12 181t-29.5 148.5t-96 100.5t-187.5 37q-94 0 -163.5 -24.5t-111.5 -63.5t-72 -103.5t-44 -126t-25 -149.5q-12 -131 -7 -235.5zM389 1331q0 25 17.5 43.5t44.5 18.5q25 0 43 -18.5t18 -43.5q0 -27 -18.5 -44t-42.5 -17 q-27 0 -44.5 17t-17.5 44zM778 1331q0 25 17.5 43.5t44.5 18.5q25 0 43 -18.5t18 -43.5q0 -27 -18.5 -44t-42.5 -17q-27 0 -44.5 17t-17.5 44z" />
<glyph unicode="&#xf7;" horiz-adv-x="1228" d="M236 670l6 57h798l-6 -57h-798zM532 350q0 25 17.5 43.5t44.5 18.5q25 0 43 -18.5t18 -43.5q0 -27 -18.5 -44t-42.5 -17q-27 0 -44.5 17t-17.5 44zM618 1047q0 25 17.5 43t44.5 18q25 0 43 -18.5t18 -42.5q0 -27 -18 -44.5t-43 -17.5q-27 0 -44.5 17.5t-17.5 44.5z" />
<glyph unicode="&#xf8;" horiz-adv-x="1089" d="M100 0l76 98q-88 117 -53 414q31 256 135 389t352 133q172 0 258 -69l50 59h69l-78 -96q96 -119 58 -416q-14 -125 -42 -211t-80 -160.5t-142.5 -112.5t-221.5 -38q-178 0 -264 69l-47 -59h-70zM186 512q-33 -254 35 -358l608 761q-74 63 -227 64q-94 0 -163.5 -24.5 t-111.5 -63.5t-72 -103.5t-44.5 -126t-24.5 -149.5zM256 111q76 -66 231 -66q117 0 196 35t122 104.5t64.5 143t33.5 184.5q33 260 -37 360z" />
<glyph unicode="&#xf9;" horiz-adv-x="1036" d="M104 276l93 748h65l-92 -754q-16 -129 44 -177t198 -48q225 0 368 84l111 895h65l-125 -1024h-30l-21 80q-70 -41 -176 -65.5t-198 -24.5q-180 0 -250 66t-52 220zM465 1536h72l71 -410h-41z" />
<glyph unicode="&#xfa;" horiz-adv-x="1036" d="M104 276l93 748h65l-92 -754q-16 -129 44 -177t198 -48q225 0 368 84l111 895h65l-125 -1024h-30l-21 80q-70 -41 -176 -65.5t-198 -24.5q-180 0 -250 66t-52 220zM567 1126l174 410h72l-205 -410h-41z" />
<glyph unicode="&#xfb;" horiz-adv-x="1036" d="M104 276l93 748h65l-92 -754q-16 -129 44 -177t198 -48q225 0 368 84l111 895h65l-125 -1024h-30l-21 80q-70 -41 -176 -65.5t-198 -24.5q-180 0 -250 66t-52 220zM250 1126l358 410h62l256 -410h-49l-246 344l-332 -344h-49z" />
<glyph unicode="&#xfc;" horiz-adv-x="1036" d="M104 276l93 748h65l-92 -754q-16 -129 44 -177t198 -48q225 0 368 84l111 895h65l-125 -1024h-30l-21 80q-70 -41 -176 -65.5t-198 -24.5q-180 0 -250 66t-52 220zM356 1331q0 25 17.5 43.5t44.5 18.5q25 0 43 -18.5t18 -43.5q0 -27 -18.5 -44t-42.5 -17q-27 0 -44.5 17 t-17.5 44zM745 1331q0 25 17.5 43.5t44.5 18.5q25 0 43 -18.5t18 -43.5q0 -27 -18.5 -44t-42.5 -17q-27 0 -44.5 17t-17.5 44z" />
<glyph unicode="&#xfd;" horiz-adv-x="1036" d="M12 -463l6 62q154 -66 334 -66q201 0 289 76t107 239l28 228q-154 -86 -370 -86q-180 0 -250 66.5t-52 219.5l93 748h65l-92 -754q-16 -129 44 -177t198 -48q227 0 370 84l111 895h63l-143 -1174q-27 -209 -138.5 -290.5t-330.5 -81.5q-199 0 -332 59zM567 1126l174 410 h72l-205 -410h-41z" />
<glyph unicode="&#xfe;" d="M18 -512l252 2048h62l-74 -588q147 86 365 86q123 0 204.5 -40t115.5 -110.5t45 -165.5t-7 -206q-29 -246 -139.5 -384t-347.5 -138q-215 0 -342 86l-72 -588h-62zM158 131q129 -86 342 -86q109 0 188.5 39t124.5 109.5t68.5 146.5t36.5 172q16 86 8 170t-35 150.5 t-97.5 106.5t-179.5 40q-215 0 -362 -86z" />
<glyph unicode="&#xff;" horiz-adv-x="1036" d="M12 -463l6 62q154 -66 334 -66q201 0 289 76t107 239l28 228q-154 -86 -370 -86q-180 0 -250 66.5t-52 219.5l93 748h65l-92 -754q-16 -129 44 -177t198 -48q227 0 370 84l111 895h63l-143 -1174q-27 -209 -138.5 -290.5t-330.5 -81.5q-199 0 -332 59zM356 1331 q0 25 17.5 43.5t44.5 18.5q25 0 43 -18.5t18 -43.5q0 -27 -18.5 -44t-42.5 -17q-27 0 -44.5 17t-17.5 44zM745 1331q0 25 17.5 43.5t44.5 18.5q25 0 43 -18.5t18 -43.5q0 -27 -18.5 -44t-42.5 -17q-27 0 -44.5 17t-17.5 44z" />
<glyph unicode="&#x152;" horiz-adv-x="1779" d="M129 445.5q-10 142.5 16 322.5q23 193 64 325t116.5 237.5t200.5 155.5t303 50h965l-8 -59h-705l-80 -652h629l-6 -57h-629l-88 -709h705l-6 -59h-965q-178 0 -290.5 52t-162 151.5t-59.5 242zM213 768q-47 -375 45 -542t399 -167h185l174 1418h-185q-307 0 -440 -167 t-178 -542z" />
<glyph unicode="&#x153;" horiz-adv-x="1826" d="M112.5 303q-8.5 96 10.5 209q31 256 135 389t352 133q170 0 254 -65.5t105 -188.5q117 254 424 254q199 0 275.5 -72.5t60.5 -201.5q-33 -276 -406 -277h-360q-12 -86 -2 -165.5t37.5 -140t96 -96.5t175.5 -36q170 0 332 51l-7 -55q-139 -51 -331 -51q-307 0 -361 252 q-104 -252 -422 -252q-131 0 -213 39t-114.5 108.5t-41 165.5zM179 276.5q5 -104.5 81 -168t227 -63.5q117 0 196 35t122 104.5t64.5 143t33.5 184.5q16 96 12 181t-29.5 148.5t-96 100.5t-187.5 37q-94 0 -163.5 -24.5t-111.5 -63.5t-72 -103.5t-44 -126t-25 -149.5 q-12 -131 -7 -235.5zM971 541h360q170 0 247 54t89 164.5t-50.5 165t-232.5 54.5q-201 0 -292.5 -117.5t-120.5 -320.5z" />
<glyph unicode="&#x178;" horiz-adv-x="1265" d="M178 1536h80l397 -848l607 848h79l-661 -907l-76 -629h-65l75 629zM528 1741q0 25 17.5 43t44.5 18q25 0 43 -18.5t18 -42.5q0 -27 -18.5 -44.5t-42.5 -17.5q-27 0 -44.5 17.5t-17.5 44.5zM918 1741q0 25 17 43t44 18q25 0 43 -18.5t18 -42.5q0 -27 -18 -44.5t-43 -17.5 q-27 0 -44 17.5t-17 44.5z" />
<glyph unicode="&#x2c6;" horiz-adv-x="1167" d="M322 1126l358 410h61l256 -410h-49l-246 344l-331 -344h-49z" />
<glyph unicode="&#x2dc;" horiz-adv-x="1167" d="M350 1247q35 180 201 180q61 0 105 -35.5t81 -70.5t86 -35q117 0 138 129h57q-35 -180 -199 -180q-61 0 -105 36t-81 70.5t-86 34.5q-117 0 -139 -129h-58z" />
<glyph unicode="&#x2000;" horiz-adv-x="942" />
<glyph unicode="&#x2001;" horiz-adv-x="1886" />
<glyph unicode="&#x2002;" horiz-adv-x="942" />
<glyph unicode="&#x2003;" horiz-adv-x="1886" />
<glyph unicode="&#x2004;" horiz-adv-x="628" />
<glyph unicode="&#x2005;" horiz-adv-x="471" />
<glyph unicode="&#x2006;" horiz-adv-x="313" />
<glyph unicode="&#x2007;" horiz-adv-x="313" />
<glyph unicode="&#x2008;" horiz-adv-x="235" />
<glyph unicode="&#x2009;" horiz-adv-x="376" />
<glyph unicode="&#x200a;" horiz-adv-x="104" />
<glyph unicode="&#x2010;" horiz-adv-x="696" d="M133 670l6 57h471l-6 -57h-471z" />
<glyph unicode="&#x2011;" horiz-adv-x="696" d="M133 670l6 57h471l-6 -57h-471z" />
<glyph unicode="&#x2012;" horiz-adv-x="696" d="M133 670l6 57h471l-6 -57h-471z" />
<glyph unicode="&#x2013;" horiz-adv-x="1024" d="M133 670l6 57h799l-6 -57h-799z" />
<glyph unicode="&#x2014;" horiz-adv-x="2048" d="M133 670l6 57h1823l-6 -57h-1823z" />
<glyph unicode="&#x2018;" horiz-adv-x="225" d="M70 1024l202 512h43l-174 -512h-71z" />
<glyph unicode="&#x2019;" horiz-adv-x="225" d="M100 1024l174 512h72l-203 -512h-43z" />
<glyph unicode="&#x201a;" horiz-adv-x="225" d="M-63 -328l172 512h71l-203 -512h-40z" />
<glyph unicode="&#x201c;" horiz-adv-x="450" d="M70 1024l202 512h43l-174 -512h-71zM295 1024l203 512h43l-174 -512h-72z" />
<glyph unicode="&#x201d;" horiz-adv-x="450" d="M100 1024l174 512h72l-203 -512h-43zM326 1024l174 512h71l-202 -512h-43z" />
<glyph unicode="&#x201e;" horiz-adv-x="450" d="M-63 -328l172 512h71l-203 -512h-40zM160 -328l174 512h72l-203 -512h-43z" />
<glyph unicode="&#x2022;" horiz-adv-x="757" d="M145 768q0 111 78 188.5t188.5 77.5t188.5 -77.5t78 -188.5t-78 -188.5t-188.5 -77.5t-188.5 77.5t-78 188.5z" />
<glyph unicode="&#x2026;" horiz-adv-x="1966" d="M190 51q0 25 17.5 43.5t44.5 18.5q25 0 43 -18.5t18 -43.5q0 -27 -18.5 -44t-42.5 -17q-27 0 -44.5 17t-17.5 44zM866 51q0 25 17.5 43.5t44.5 18.5q25 0 43 -18.5t18 -43.5q0 -27 -18.5 -44t-42.5 -17q-27 0 -44.5 17t-17.5 44zM1542 51q0 25 17.5 43.5t44.5 18.5 q25 0 43 -18.5t18 -43.5q0 -27 -18.5 -44t-42.5 -17q-27 0 -44.5 17t-17.5 44z" />
<glyph unicode="&#x202f;" horiz-adv-x="376" />
<glyph unicode="&#x2039;" horiz-adv-x="563" d="M80 489l6 46l428 331l-6 -61l-363 -293l291 -293l-8 -63z" />
<glyph unicode="&#x203a;" horiz-adv-x="563" d="M49 156l8 63l361 293l-289 293l6 61l350 -331l-6 -46z" />
<glyph unicode="&#x205f;" horiz-adv-x="471" />
<glyph unicode="&#x20ac;" horiz-adv-x="1159" d="M45 467l8 57h172q4 78 11 117l18 117h-172l6 57h180q59 229 191.5 352t365.5 123q170 0 291 -45l-6 -55q-145 43 -295 43q-371 0 -481 -418h577l-28 -57h-564q-12 -57 -18 -117q-10 -68 -10 -117h483l-31 -57h-452q4 -201 92 -310.5t287 -109.5q160 0 305 45l-6 -57 q-129 -45 -303 -45q-233 0 -336 123t-105 354h-180z" />
<glyph unicode="&#x2122;" horiz-adv-x="1116" d="M121 1499l6 37h414l-6 -37h-183l-57 -475h-49l57 475h-182zM590 1024l63 512h43l150 -397l250 397h41l-64 -512h-41l58 438l-230 -372h-39l-139 372l-49 -438h-43z" />
<glyph unicode="&#xe000;" horiz-adv-x="1025" d="M0 1025h1025v-1025h-1025v1025z" />
<glyph unicode="&#xfb01;" horiz-adv-x="1269" d="M109 969l4 35l196 22l19 145q25 197 170 286t420 89q143 0 239 -24l-8 -58q-104 27 -240 27q-483 0 -518 -305l-20 -162h725l-109 -881q-8 -59 9.5 -81.5t72.5 -22.5l-6 -49q-156 0 -137 149l102 830h-663l-183 -1481h-61l182 1481h-194z" />
<glyph unicode="&#xfb02;" horiz-adv-x="1269" d="M109 969l4 35l196 22l19 145q25 197 170 286t420 89q143 0 239 -24l-170 -1379q-8 -59 9.5 -81.5t72.5 -22.5l-6 -49q-156 0 -137 149l164 1338q-74 14 -181 14q-483 0 -518 -305l-20 -162h350l-6 -55h-350l-183 -1481h-61l182 1481h-194z" />
<glyph unicode="&#xfb03;" horiz-adv-x="1966" d="M109 969l4 35l196 22l29 231q35 289 391 289q86 0 127 -8l-8 -55q-45 8 -125 8q-297 0 -324 -234l-28 -233h635l18 147q25 197 170 286t420 89q143 0 239 -24l-8 -58q-104 27 -239 27q-483 0 -519 -305l-20 -162h725l-109 -881q-8 -59 9.5 -81.5t72.5 -22.5l-6 -49 q-156 0 -137 149l102 830h-663l-182 -1481h-62l182 1481h-634l-183 -1481h-61l182 1481h-194z" />
<glyph unicode="&#xfb04;" horiz-adv-x="1966" d="M109 969l4 35l196 22l29 231q35 289 391 289q86 0 127 -8l-8 -55q-45 8 -125 8q-297 0 -324 -234l-28 -233h635l18 147q25 197 170 286t420 89q143 0 239 -24l-170 -1379q-8 -59 9.5 -81.5t72.5 -22.5l-6 -49q-156 0 -137 149l164 1338q-74 14 -180 14q-483 0 -519 -305 l-20 -162h350l-6 -55h-350l-182 -1481h-62l182 1481h-634l-183 -1481h-61l182 1481h-194z" />
</font>
</defs>
</svg>
